<svg version="1.1" id="Layer_1" xmlns="http://www.w3.org/2000/svg" xmlns:xlink="http://www.w3.org/1999/xlink" x="0px" y="0px"
	 width="100%" viewBox="0 0 1200 1200" enable-background="new 0 0 1200 1200" xml:space="preserve">
<path fill="#59606D" opacity="1.000000" stroke="none" 
	d="
M826.000000,1201.000000 
	C552.166687,1201.000000 278.833344,1200.991211 5.500035,1201.093384 
	C1.750852,1201.094849 0.906084,1200.249023 0.907021,1196.500000 
	C1.006199,799.500000 1.006199,402.500000 0.907021,5.500023 
	C0.906084,1.750933 1.750933,0.906086 5.500023,0.907022 
	C402.500000,1.006185 799.500000,1.006186 1196.500000,0.907022 
	C1200.249023,0.906086 1201.093994,1.750932 1201.093140,5.500023 
	C1200.993896,402.500000 1200.993896,799.500000 1201.093140,1196.500000 
	C1201.093994,1200.249023 1200.249512,1201.097900 1196.499878,1201.094482 
	C1073.166626,1200.980347 949.833313,1201.000000 826.000000,1201.000000 
z"/>
<path fill="#70ACB1" opacity="1.000000" stroke="none" 
	d="
M717.000366,565.998352 
	C714.256897,571.165955 711.251282,575.822266 709.139404,580.853638 
	C706.042480,588.231689 699.069275,590.646423 693.089417,594.214905 
	C677.694885,603.401489 662.039307,612.150452 646.632751,621.317383 
	C643.887085,622.951050 642.464966,622.243469 640.825867,620.223755 
	C625.363892,601.171204 609.931274,582.094543 594.413696,563.087402 
	C587.070312,554.092651 579.560730,545.233521 572.127197,536.312378 
	C571.708496,535.809875 571.296265,535.302002 570.881042,534.796570 
	C568.698914,539.284180 563.204285,533.494873 560.723328,538.338135 
	C555.881226,547.790527 550.475342,556.952881 545.362854,566.268311 
	C539.210205,577.479004 533.032104,588.677551 527.060791,599.984741 
	C525.445251,603.043823 523.768188,603.054565 521.136719,601.504272 
	C503.830627,591.309021 486.500427,581.154541 469.135406,571.059998 
	C466.406647,569.473755 464.734528,567.883911 466.363129,564.438293 
	C480.198273,535.166260 493.938263,505.849304 507.772217,476.576721 
	C510.519653,470.763092 510.857544,470.649597 514.938904,475.528168 
	C524.727173,487.228455 534.304565,499.105286 543.957703,510.918549 
	C549.097778,517.208923 554.163147,523.561768 559.395508,529.774170 
	C560.416443,530.986328 561.582703,533.322327 563.795044,531.448730 
	C565.668762,529.861877 565.318604,528.073914 563.807739,526.222351 
	C556.890564,517.745178 550.088745,509.173737 543.165710,500.701324 
	C534.458374,490.045135 525.671021,479.454254 516.923889,468.830444 
	C515.256042,466.804810 513.762817,463.726196 511.272308,468.123108 
	C510.801605,468.954071 509.857422,469.270905 509.204437,468.499847 
	C505.886841,464.582642 505.256744,468.472260 504.400665,470.295074 
	C490.430969,500.039246 476.510925,529.806946 462.677155,559.614563 
	C460.088989,565.191223 459.824799,565.408142 454.531586,562.319153 
	C444.065033,556.210999 433.604675,550.090759 423.067993,544.105347 
	C420.919525,542.884949 419.988647,541.432190 419.990570,538.971130 
	C420.036346,480.481506 420.033020,421.991913 420.052734,363.502289 
	C420.052887,363.021637 420.246307,362.541046 420.513336,361.297272 
	C425.870239,366.125153 429.640076,371.728210 433.899811,376.860535 
	C445.654205,391.022797 457.307129,405.269379 468.982117,419.497437 
	C480.341431,433.340729 491.643799,447.231018 503.073822,461.015564 
	C504.336578,462.538483 505.745331,467.176208 508.314117,461.746735 
	C509.063568,460.162750 510.342896,460.790771 511.120483,461.765320 
	C513.455505,464.691650 514.251465,462.481750 515.120544,460.634705 
	C523.745056,442.305267 532.371948,423.976929 540.958801,405.629822 
	C546.520935,393.745270 551.968262,381.806793 557.554016,369.933380 
	C569.082581,345.427307 580.652527,320.940582 592.281311,296.482025 
	C592.867920,295.248260 592.608765,293.005463 594.545166,293.011993 
	C596.311523,293.017975 597.153870,294.793396 598.103394,296.186188 
	C607.827759,310.449860 617.580872,324.693939 627.344360,338.930908 
	C634.195862,348.921722 641.084778,358.886932 647.935913,368.878021 
	C649.378113,370.981293 650.643555,373.630005 652.912537,369.554108 
	C653.603638,368.312622 654.368774,368.537933 655.171753,369.553040 
	C657.382141,372.347504 658.538818,370.816071 659.771606,368.532654 
	C672.554077,344.857483 685.380798,321.206146 698.213745,297.558289 
	C699.004700,296.100708 699.976074,294.742310 700.820618,293.312439 
	C705.201599,285.895233 705.155701,285.962311 712.425659,290.221802 
	C734.339600,303.061249 756.268188,315.876129 778.250427,328.597992 
	C780.875977,330.117493 782.025269,331.957031 782.020691,334.978027 
	C781.965637,371.304962 781.994446,407.631989 781.978821,443.959015 
	C781.976135,450.198822 777.584656,454.611084 774.965149,459.672852 
	C767.644592,473.818634 759.666870,487.622925 752.200256,501.695557 
	C750.153625,505.553009 749.095703,506.163788 746.398254,502.160065 
	C735.734619,486.332245 724.804504,470.684082 713.983826,454.961975 
	C696.012085,428.849731 678.053528,402.728424 660.070557,376.623932 
	C658.814697,374.800873 657.600830,371.852539 655.401001,375.965973 
	C655.012756,376.691956 654.110291,377.456390 653.371033,376.602112 
	C649.248291,371.837524 648.737915,376.861267 647.638794,378.871277 
	C628.758423,413.398712 609.981567,447.982819 591.165649,482.545532 
	C583.702209,496.254974 576.189270,509.937439 568.729858,523.649048 
	C568.019470,524.954834 567.351440,526.335327 566.985168,527.763489 
	C566.528076,529.545471 567.179993,531.176880 568.934875,531.882202 
	C570.773499,532.621216 571.183960,530.702698 571.737488,529.718933 
	C576.621643,521.038086 581.406433,512.300903 586.181274,503.558868 
	C604.093506,470.764069 621.992310,437.961975 639.892822,405.160767 
	C643.949707,397.726929 648.120728,390.351440 651.992737,382.822266 
	C654.146851,378.633667 655.409119,379.662689 657.583008,382.869720 
	C671.459900,403.341614 685.482727,423.714722 699.477173,444.106842 
	C714.032959,465.317169 728.615601,486.509033 743.172302,507.718781 
	C744.672607,509.904755 745.991272,512.459595 748.401184,508.473785 
	C748.884460,507.674530 750.015320,507.588409 750.526489,508.388550 
	C753.324524,512.768860 754.309448,509.219543 755.407166,507.235382 
	C762.882812,493.722137 770.287659,480.169678 777.717590,466.631073 
	C778.651184,464.929840 779.120483,462.886871 781.068726,461.832275 
	C782.556519,462.877899 781.962402,464.337006 781.964539,465.534149 
	C782.007568,489.529907 782.003052,513.525757 781.975525,537.521606 
	C781.973816,539.003784 782.075012,540.657227 781.485413,541.934265 
	C779.965027,545.227417 775.902405,545.233521 773.647522,542.010315 
	C767.464294,533.171936 761.259094,524.346558 755.257263,515.385559 
	C753.744141,513.126404 752.856140,512.218994 751.330322,515.154907 
	C750.520020,516.713867 749.329956,517.052673 748.320801,515.476562 
	C746.129578,512.054504 745.101257,514.764648 744.224487,516.310120 
	C739.719482,524.250793 735.319031,532.251343 730.932800,540.258728 
	C726.304749,548.707764 721.733704,557.188049 717.000366,565.998352 
z"/>
<path fill="#70ACB1" opacity="1.000000" stroke="none" 
	d="
M423.701050,355.204987 
	C420.059631,352.198914 420.465729,348.324524 419.868011,344.520325 
	C418.274170,334.377045 422.456512,328.958588 431.393524,323.933441 
	C466.408112,304.245087 500.867371,283.569305 535.539734,263.272003 
	C543.706116,258.491364 551.959045,253.855118 560.049255,248.949661 
	C563.136353,247.077835 564.901428,247.656128 566.858154,250.588760 
	C573.766235,260.941772 580.889771,271.151093 587.944763,281.405884 
	C589.252502,283.306793 590.475220,286.028046 592.619690,282.006378 
	C593.179504,280.956543 594.259338,280.638519 595.037109,281.718384 
	C598.525146,286.561188 599.060486,281.790344 599.884338,280.045807 
	C605.771484,267.581055 611.447266,255.016693 617.250549,242.512009 
	C620.026184,236.531174 620.083618,236.562500 625.769165,239.865463 
	C648.739136,253.209610 671.655884,266.647125 694.732483,279.804260 
	C698.820312,282.134949 699.367432,283.994629 697.065063,288.136353 
	C683.104553,313.249908 669.400574,338.506317 655.676514,363.750702 
	C653.360229,368.011353 651.873901,364.580170 650.849915,363.129395 
	C644.819702,354.585541 639.027588,345.874115 633.110657,337.249695 
	C622.124207,321.236206 611.097839,305.250122 600.114624,289.234467 
	C598.744446,287.236389 597.577942,285.257294 595.594543,288.731781 
	C594.984253,289.800812 594.071899,290.580200 592.987183,288.930634 
	C590.888367,285.738861 590.064575,287.255127 588.867798,289.831940 
	C577.958008,313.322479 566.911865,336.749695 555.919434,360.201843 
	C541.406067,391.165741 526.887024,422.127075 512.414673,453.110168 
	C509.662231,459.002777 508.776733,459.101593 504.626190,454.023834 
	C486.574463,431.939728 468.459869,409.907043 450.385071,387.841797 
	C441.557617,377.065521 432.767242,366.258850 423.701050,355.204987 
z"/>
<path fill="#70ACB1" opacity="1.000000" stroke="none" 
	d="
M558.699585,623.315918 
	C550.497864,618.526733 542.693298,613.777588 534.692749,609.385376 
	C531.159790,607.445923 530.445007,605.577209 532.456421,601.933716 
	C543.132874,582.594788 553.579895,563.129272 564.177246,543.746277 
	C566.528870,539.445007 567.552917,539.531738 570.614380,543.280701 
	C585.507263,561.517883 600.479492,579.690125 615.380554,597.920532 
	C622.305664,606.392883 629.062500,615.003601 636.052551,623.421204 
	C637.853333,625.589661 637.523987,626.624146 635.240845,627.942688 
	C625.610046,633.504639 616.019531,639.137939 606.470032,644.838501 
	C601.530334,647.787354 597.270142,645.901855 592.971497,643.374634 
	C581.666199,636.728271 570.336792,630.122803 558.699585,623.315918 
z"/>
<path fill="#70ACB1" opacity="1.000000" stroke="none" 
	d="
M657.557373,748.758301 
	C657.494568,756.472229 657.494568,763.911865 657.494568,771.922058 
	C661.777832,769.548706 665.017944,766.314514 669.743286,765.996826 
	C681.463318,765.208862 689.909424,770.513489 692.972351,781.871826 
	C695.893677,792.704773 695.659302,803.554749 689.287659,813.376221 
	C682.723877,823.493958 670.704407,825.838928 660.581787,819.295837 
	C658.302673,817.822632 656.359070,815.562622 654.415405,820.302551 
	C653.111267,823.482971 649.048340,821.953247 646.204834,821.713806 
	C643.632324,821.497314 644.048706,819.099854 644.045776,817.364197 
	C644.006042,793.884521 644.066162,770.404480 643.963928,746.925232 
	C643.948059,743.276245 645.246704,741.636047 648.913147,742.005188 
	C649.572144,742.071533 650.244324,742.005188 650.910400,742.003113 
	C657.565491,741.982422 657.565491,741.982605 657.557373,748.758301 
z"/>
<path fill="#70ACB1" opacity="1.000000" stroke="none" 
	d="
M605.356079,811.616516 
	C602.807556,808.111023 600.561707,804.822632 598.066589,801.735779 
	C597.024780,800.447021 596.079468,798.284851 593.723877,799.304443 
	C591.647583,800.203247 590.995483,802.019226 591.015991,804.202759 
	C591.053528,808.196655 590.742981,812.212463 591.061829,816.180176 
	C591.441467,820.904114 589.400879,822.524170 584.981567,822.013489 
	C583.831238,821.880615 582.648865,821.910645 581.489685,821.989990 
	C578.356689,822.204651 576.976440,820.908691 576.992432,817.653442 
	C577.086121,798.549377 577.074402,779.444763 577.086365,760.340332 
	C577.089294,755.697571 577.139343,751.051880 576.994446,746.412964 
	C576.894409,743.211670 578.248291,742.095886 581.419373,741.962952 
	C591.017151,741.560852 591.007202,741.450439 591.001953,751.059265 
	C590.995911,762.176575 591.000488,773.293823 591.000488,785.486206 
	C596.598206,781.671753 601.264404,778.074524 604.578186,773.626648 
	C610.157837,766.137390 617.131531,765.867981 625.243530,767.576050 
	C624.638489,770.221985 622.274292,771.395386 620.630920,773.073364 
	C616.441650,777.351013 612.175964,781.560181 607.801392,785.647461 
	C605.529114,787.770447 605.426514,789.470398 607.397522,791.987122 
	C613.729919,800.072693 619.834229,808.337463 625.985229,816.564087 
	C627.039612,817.974304 627.891479,819.535950 629.063110,821.384521 
	C624.420105,822.535278 620.068298,821.716919 615.893921,822.752747 
	C613.937866,823.238220 612.681213,821.255249 611.556458,819.842468 
	C609.493042,817.250977 607.550842,814.562866 605.356079,811.616516 
z"/>
<path fill="#70ACB1" opacity="1.000000" stroke="none" 
	d="
M725.895813,822.946655 
	C712.757629,820.810547 707.519531,814.224182 710.064270,803.074890 
	C711.528931,796.657532 716.519165,793.407104 722.119934,790.845032 
	C728.189331,788.068665 734.655701,787.770508 741.121338,787.802490 
	C745.275635,787.823120 745.625061,785.996826 744.352173,782.807068 
	C741.881104,776.614563 734.139038,774.407959 725.925049,777.624939 
	C724.543518,778.165894 723.018677,778.726135 721.998535,779.725220 
	C719.814087,781.864441 718.405212,780.904053 716.616638,779.174744 
	C711.599792,774.324341 711.624329,773.776672 717.653870,769.886963 
	C725.982361,764.514221 746.401978,763.671631 753.792358,773.149719 
	C756.926514,777.169312 758.688477,781.583374 758.860168,786.353699 
	C759.231079,796.660828 758.900757,806.991272 759.024780,817.310181 
	C759.065735,820.715393 757.803711,822.283081 754.352661,821.996704 
	C753.195801,821.900757 752.023438,822.005005 750.858459,821.992188 
	C747.635010,821.956665 743.880920,822.672729 745.125244,816.206543 
	C738.898376,821.289001 733.090698,823.738159 725.895813,822.946655 
z"/>
<path fill="#70ACB1" opacity="1.000000" stroke="none" 
	d="
M468.575195,792.947021 
	C468.500549,782.763123 468.335022,772.838074 468.629974,762.926636 
	C468.739563,759.243774 467.758423,757.612488 464.011719,757.989685 
	C463.023560,758.089172 462.016174,758.007629 461.017822,757.993958 
	C455.598236,757.919678 453.032837,753.684570 455.315216,748.729980 
	C456.028534,747.181458 457.304901,747.078064 458.620392,747.073303 
	C468.771332,747.036377 478.922913,747.101196 489.073273,747.013306 
	C493.590210,746.974243 492.862457,750.132202 492.992798,752.896118 
	C493.134247,755.895386 492.657959,758.199951 488.792084,757.996765 
	C481.405029,757.608459 482.029541,758.763428 482.009094,765.521790 
	C481.976349,776.338867 482.210632,787.161621 481.932037,797.971619 
	C481.657593,808.619934 477.847534,817.341492 467.284393,821.868408 
	C460.604004,824.731323 447.400665,822.133179 442.524963,816.946533 
	C441.252319,815.592651 441.248962,814.365723 442.096436,812.933533 
	C442.855560,811.650513 443.679047,810.405151 444.425629,809.115173 
	C447.425293,803.931885 447.364868,803.984253 451.553162,807.957825 
	C454.251465,810.517822 457.510010,811.198853 461.176422,810.406921 
	C465.485565,809.476196 466.956421,806.080872 467.800323,802.513733 
	C468.510376,799.512573 468.409210,796.319397 468.575195,792.947021 
z"/>
<path fill="#70ACB1" opacity="1.000000" stroke="none" 
	d="
M599.997681,266.006256 
	C598.425415,269.524689 597.020081,272.707367 595.550598,275.860138 
	C594.467712,278.183380 593.450989,279.090424 591.531250,276.257324 
	C584.657471,266.113312 577.623596,256.077057 570.574158,246.053513 
	C569.112427,243.975098 570.338196,243.011230 571.846619,242.129303 
	C580.139832,237.280533 588.454224,232.467911 596.770813,227.659271 
	C600.216492,225.666977 603.515198,226.607346 606.643250,228.403854 
	C614.677124,233.017883 614.830322,233.125458 611.151428,241.721725 
	C607.697144,249.793304 603.825256,257.686188 599.997681,266.006256 
z"/>
<path fill="#70ACB1" opacity="1.000000" stroke="none" 
	d="
M725.012390,563.055786 
	C732.430725,549.504822 739.741699,536.313782 746.954407,523.069275 
	C749.811279,517.823303 750.022949,517.771301 753.517761,522.875305 
	C758.291199,529.846924 762.989868,536.873596 767.930603,543.725159 
	C770.427612,547.187866 770.808960,549.093811 766.299744,551.594177 
	C750.948425,560.106262 735.924622,569.208618 720.759094,578.057068 
	C719.777588,578.629700 718.655518,578.961426 716.276794,579.960388 
	C719.501526,573.740601 722.183594,568.567444 725.012390,563.055786 
z"/>
<path fill="#70ACB1" opacity="1.000000" stroke="none" 
	d="
M541.795959,810.642395 
	C542.720032,810.891846 543.442261,810.948975 544.526489,811.023315 
	C545.110596,811.315857 545.392334,811.407593 545.922852,811.177917 
	C546.805969,811.033813 547.500244,811.027344 548.541504,811.030640 
	C549.110596,811.315857 549.392334,811.407593 549.922852,811.177979 
	C555.686279,811.343689 553.667908,815.597473 553.895630,818.539246 
	C554.164185,822.008423 551.557922,821.980591 549.146606,821.981750 
	C538.995117,821.986755 528.841614,821.867126 518.693054,822.039551 
	C514.804626,822.105591 513.838257,820.312988 513.968262,816.871338 
	C514.084412,813.793823 513.644470,811.238281 518.365417,811.056519 
	C528.011536,810.685059 528.000916,810.351440 527.999207,800.343689 
	C527.998169,794.186218 527.915588,788.027527 528.016724,781.871826 
	C528.063110,779.047241 527.354187,777.347900 524.098328,777.843567 
	C523.148132,777.988281 522.153748,777.824951 521.179871,777.834351 
	C515.362976,777.890686 513.162109,774.579651 515.208252,769.017395 
	C515.791199,767.432739 516.938721,767.097412 518.311951,767.088928 
	C524.967896,767.047668 531.624512,767.094482 538.280029,767.023010 
	C541.078979,766.992981 541.424377,768.632690 541.455261,770.891357 
	C541.625977,783.391418 540.900452,795.900269 541.883789,808.639587 
	C541.616028,809.356140 541.458191,809.868896 541.795959,810.642395 
z"/>
<path fill="#70ACB1" opacity="1.000000" stroke="none" 
	d="
M542.119263,747.718323 
	C540.819397,753.312988 537.343750,755.912964 532.579956,755.170776 
	C528.413391,754.521667 525.643616,751.147949 525.657837,746.739258 
	C525.670654,742.738342 528.973755,739.558411 533.428711,739.258057 
	C537.895813,738.956848 541.195190,742.013794 542.119263,747.718323 
z"/>
<path fill="#59606D" opacity="1.000000" stroke="none" 
	d="
M541.992065,810.510254 
	C541.210449,810.462219 541.165100,809.901123 541.773193,809.053772 
	C541.967773,809.319519 541.976990,809.752625 541.992065,810.510254 
z"/>
<path fill="#59606D" opacity="1.000000" stroke="none" 
	d="
M545.805969,811.039795 
	C545.791443,811.137085 545.471191,811.233826 545.019775,811.185547 
	C545.092468,811.040100 545.296326,811.039734 545.805969,811.039795 
z"/>
<path fill="#59606D" opacity="1.000000" stroke="none" 
	d="
M549.805969,811.039795 
	C549.791443,811.137085 549.471191,811.233887 549.019775,811.185547 
	C549.092468,811.040100 549.296326,811.039734 549.805969,811.039795 
z"/>
<path fill="#59606D" opacity="1.000000" stroke="none" 
	d="
M669.859863,776.041504 
	C674.403442,776.605957 677.238647,778.964417 678.808777,782.709045 
	C681.880798,790.035278 681.902344,797.559753 679.355347,804.988953 
	C677.732971,809.721252 672.988586,812.583191 668.092712,812.302246 
	C663.068787,812.014038 660.313477,808.838501 659.054993,804.399170 
	C657.129150,797.605957 656.921692,790.667603 659.227173,783.934204 
	C660.834900,779.238892 664.023132,776.039307 669.859863,776.041504 
z"/>
<path fill="#59606D" opacity="1.000000" stroke="none" 
	d="
M734.534058,797.132568 
	C735.626343,797.059875 736.319641,796.897461 736.944641,797.038330 
	C739.656982,797.649414 743.084534,795.337219 745.066772,798.575928 
	C746.331543,800.642395 742.950134,808.005127 740.149780,809.831909 
	C737.014587,811.877197 733.536438,812.647522 729.780396,812.264221 
	C726.563904,811.935913 723.906799,810.793640 723.181519,807.360535 
	C722.437927,803.840149 724.106873,801.143433 727.120605,799.573486 
	C729.278015,798.449646 731.764221,797.956848 734.534058,797.132568 
z"/>
</svg>